<?xml version="1.0" encoding="utf-8"?>
<!-- Generator: Adobe Illustrator 19.1.0, SVG Export Plug-In . SVG Version: 6.00 Build 0)  -->
<svg version="1.1" id="Layer_1" xmlns="http://www.w3.org/2000/svg" xmlns:xlink="http://www.w3.org/1999/xlink" x="0px" y="0px"
	 width="1190.9px" height="347.1px" viewBox="409.6 267.6 1190.9 347.1" style="enable-background:new 409.6 267.6 1190.9 347.1;"
	 xml:space="preserve">
<style type="text/css">
	.st0{fill:#1B2757;}
	.st1{opacity:0.4;fill:#165CC1;enable-background:new    ;}
	.st2{opacity:0.3;fill:#165CC1;enable-background:new    ;}
	.st3{opacity:0.1;fill:#165CC1;enable-background:new    ;}
	.st4{opacity:0.2;fill:#165CC1;enable-background:new    ;}
	.st5{opacity:5.000000e-02;fill:#165CC1;enable-background:new    ;}
	.st6{opacity:0.5;fill:#165CC1;enable-background:new    ;}
</style>
<rect x="406" y="268.2" class="st0" width="1199.4" height="345.7"/>
<polygon class="st1" points="404.5,267.6 529.1,498.5 406,613.9 "/>
<polygon class="st2" points="639.2,560.2 529.1,498.5 630.2,371.5 "/>
<polygon class="st3" points="816.2,465.8 630.2,371.5 639.2,560.2 "/>
<polygon class="st2" points="772.7,267.6 630.2,371.5 816.2,465.8 "/>
<polygon class="st1" points="404.5,267.6 630.2,371.5 772.7,267.6 "/>
<polygon class="st4" points="1047.2,383.1 816.2,465.8 772.7,267.6 "/>
<polygon class="st3" points="1047.2,383.1 985.5,560.2 816.2,465.8 "/>
<polygon class="st2" points="816.2,465.8 810.7,614.7 639.2,560.2 "/>
<polygon class="st5" points="985.5,560.2 816.2,465.8 810.7,614.7 "/>
<polygon class="st1" points="1080.2,542.1 1047.2,383.1 985.5,560.2 "/>
<polygon class="st4" points="1055.4,614.7 985.5,560.2 1080.2,542.1 "/>
<polygon class="st2" points="1171.4,383.1 1047.2,383.1 1080.2,542.1 "/>
<polygon class="st4" points="1080.2,267.6 1047.2,383.1 1171.4,383.1 "/>
<polygon class="st2" points="772.7,267.6 1080.2,267.6 1047.2,383.1 "/>
<polygon class="st6" points="537.4,613.1 406,613.9 529.1,498.5 "/>
<polygon class="st1" points="639.2,560.2 529.1,498.5 537.4,613.1 "/>
<polygon class="st6" points="658.7,613.9 639.2,560.2 537.4,613.1 "/>
<polygon class="st4" points="810.7,614.7 658.7,613.9 639.2,560.2 "/>
<polygon class="st1" points="969.4,613.9 985.5,560.2 810.7,614.7 "/>
<polygon class="st6" points="1055.4,614.7 985.5,560.2 969.4,613.9 "/>
<polygon class="st2" points="1177.4,612.3 1080.2,542.1 1055.4,614.7 "/>
<polygon class="st3" points="1171.4,383.1 1177.4,612.3 1080.2,542.1 "/>
<polygon class="st4" points="1372.7,447.5 1171.4,383.1 1177.4,612.3 "/>
<polygon class="st2" points="1350,613.9 1177.4,612.3 1372.7,447.5 "/>
<polygon class="st4" points="1471.7,473.3 1372.7,447.5 1350,613.9 "/>
<polygon class="st3" points="1432.7,267.6 1372.7,447.5 1471.7,473.3 "/>
<polygon class="st5" points="1248.2,267.6 1171.4,383.1 1372.7,447.5 "/>
<polygon class="st1" points="1080.2,267.6 1248.2,267.6 1171.4,383.1 "/>
<polygon class="st4" points="1432.7,267.6 1372.7,447.5 1248.2,267.6 "/>
<polygon class="st6" points="1605.4,338.8 1432.7,267.6 1471.7,473.3 "/>
<polygon class="st1" points="1601.1,611.5 1471.7,473.3 1605.4,338.8 "/>
<polygon class="st2" points="1350,613.9 1471.7,473.3 1601.1,611.5 "/>
<polygon class="st1" points="1605.4,338.8 1432.7,267.6 1599.8,267.6 "/>
<polygon class="st5" points="630.2,371.5 529.1,498.5 404.5,267.6 "/>
</svg>
